<?xml version="1.0" standalone="no"?><svg xmlns="http://www.w3.org/2000/svg" viewBox="0 0 1440 320"><path fill="#2c7865" fill-opacity="1" d="M0,192L30,197.3C60,203,120,213,180,213.3C240,213,300,203,360,176C420,149,480,107,540,90.7C600,75,660,85,720,122.7C780,160,840,224,900,213.3C960,203,1020,117,1080,101.3C1140,85,1200,139,1260,176C1320,213,1380,235,1410,245.3L1440,256L1440,320L1410,320C1380,320,1320,320,1260,320C1200,320,1140,320,1080,320C1020,320,960,320,900,320C840,320,780,320,720,320C660,320,600,320,540,320C480,320,420,320,360,320C300,320,240,320,180,320C120,320,60,320,30,320L0,320Z"></path></svg>